<?xml version="1.0" standalone="no"?>
<!DOCTYPE svg PUBLIC "-//W3C//DTD SVG 20010904//EN"
 "http://www.w3.org/TR/2001/REC-SVG-20010904/DTD/svg10.dtd">
<svg version="1.0" xmlns="http://www.w3.org/2000/svg"
 width="328.000000pt" height="328.000000pt" viewBox="0 0 328.000000 328.000000"
 preserveAspectRatio="xMidYMid meet">
<metadata>
Created by potrace 1.11, written by Peter Selinger 2001-2013
</metadata>
<g transform="translate(0.000000,328.000000) scale(0.100000,-0.100000)"
fill="#000000" stroke="none">
<path d="M2839 2661 c11 -7 12 -13 4 -23 -6 -7 -13 -24 -15 -38 -3 -25 -4 -25
-163 -37 -88 -7 -197 -14 -242 -17 -46 -2 -87 -7 -93 -11 -5 -3 -10 -1 -10 4
0 6 -4 11 -10 11 -5 0 -6 -8 -3 -17 5 -13 2 -15 -12 -9 -11 4 -22 2 -27 -6 -6
-10 -8 -8 -8 5 0 14 -6 16 -37 12 -41 -5 -583 -45 -620 -45 -16 0 -23 6 -23
19 0 11 -4 23 -10 26 -6 3 -10 -5 -10 -19 0 -31 -8 -33 -225 -44 -110 -6 -164
-6 -174 2 -10 8 -17 5 -27 -9 -13 -18 -14 -18 -15 6 0 23 -1 23 -9 3 -12 -31
-35 -43 -28 -16 4 12 4 22 2 22 -8 0 -34 -61 -29 -70 3 -5 1 -11 -5 -15 -5 -3
-10 1 -10 9 0 9 -4 16 -10 16 -5 0 -10 7 -10 15 0 19 -11 19 -388 -3 -199 -12
-296 -14 -302 -7 -4 5 -13 26 -19 45 l-10 35 2 -45 c2 -39 -1 -45 -18 -47 -11
-1 -51 -5 -89 -8 -38 -4 -64 -10 -57 -14 18 -11 33 -236 33 -495 l1 -218 111
6 c61 4 188 11 281 16 94 6 280 17 415 25 291 18 384 20 398 11 7 -4 18 -30
27 -58 12 -41 15 -110 15 -330 0 -271 0 -278 20 -278 11 0 20 -7 20 -15 0 -8
5 -15 10 -15 6 0 10 11 10 24 0 19 4 23 20 19 13 -3 22 1 26 12 5 11 9 13 14
5 4 -7 10 2 15 22 7 31 8 29 16 -31 4 -35 10 -65 13 -68 2 -2 7 29 11 70 13
132 36 134 37 3 0 -47 5 -86 9 -86 5 0 9 29 9 64 0 65 13 94 25 56 8 -25 29
-27 23 -2 -3 11 1 30 9 43 13 23 13 22 8 -20 -4 -35 -2 -42 10 -37 12 4 15 -4
15 -42 1 -34 3 -43 10 -31 5 9 8 44 7 79 -1 47 2 65 12 68 10 3 12 0 8 -11 -3
-9 -2 -19 4 -23 6 -3 8 -12 5 -20 -3 -8 -1 -14 4 -14 6 0 10 5 10 11 0 5 5 7
12 3 6 -4 4 3 -5 15 -18 27 -12 51 13 51 11 0 22 5 25 10 3 6 11 10 16 10 6 0
7 -5 3 -11 -4 -7 -1 -10 7 -7 8 2 15 17 17 31 4 30 14 34 32 12 7 -8 18 -15
25 -15 7 0 15 -7 19 -15 3 -8 16 -15 29 -15 20 0 24 -5 24 -30 0 -31 8 -48 19
-37 8 8 7 45 -1 80 -6 21 -4 27 9 27 9 0 16 8 17 18 4 103 43 390 62 450 7 23
22 48 32 56 37 26 134 37 519 60 213 13 389 26 392 29 3 3 -2 170 -12 372
l-18 366 -94 -7 -94 -7 7 47 c6 41 5 46 -11 46 -15 0 -16 -2 -5 -9z m150 -333
c0 -33 -3 -58 -9 -58 -5 0 -10 -5 -10 -11 0 -5 5 -7 10 -4 6 4 10 -8 10 -30 0
-22 -4 -34 -10 -30 -5 3 -10 1 -10 -4 0 -6 3 -11 8 -11 8 0 9 -246 1 -255 -3
-3 -145 -14 -315 -25 -443 -28 -464 -27 -314 19 79 25 170 67 170 78 0 31 -60
234 -87 297 -21 48 -36 97 -37 125 l-1 46 230 17 c325 23 333 23 338 -4 4 -19
5 -18 7 7 4 37 17 -77 19 -157z m-669 152 c0 -5 -2 -10 -4 -10 -3 0 -8 5 -11
10 -3 6 -1 10 4 10 6 0 11 -4 11 -10z m-196 -39 c8 -13 96 -36 141 -36 l40 0
23 -69 c29 -87 55 -221 50 -263 -2 -17 -1 -30 3 -27 10 6 26 -18 31 -47 4 -24
0 -28 -34 -40 -40 -13 -63 -5 -38 12 11 8 2 9 -32 5 -48 -6 -48 -6 -48 24 0
28 -2 30 -27 23 -47 -13 -160 -8 -178 7 -11 9 -19 10 -23 3 -4 -6 -33 -13 -64
-17 -56 -7 -57 -7 -72 23 -9 16 -25 36 -36 44 -19 13 -19 15 20 58 59 65 64
125 18 232 -12 26 -18 50 -15 53 3 3 54 9 114 13 59 5 111 9 115 10 4 0 9 -3
12 -8z m-514 -72 c-25 -49 -35 -120 -25 -185 5 -36 15 -56 45 -86 34 -33 40
-36 49 -21 7 14 11 10 20 -23 14 -51 14 -54 -4 -48 -8 4 -15 13 -15 21 0 12
-3 12 -22 -1 -27 -19 -45 -20 -78 -3 -31 16 -97 13 -146 -8 -24 -10 -78 -16
-162 -17 l-126 -3 -19 32 c-14 25 -20 61 -24 161 -6 129 -6 130 18 145 13 8
44 18 68 21 24 4 57 14 75 23 31 16 143 28 294 31 l72 2 -20 -41z m-592 -15
c8 -14 10 -14 25 1 13 12 21 14 34 6 16 -9 16 -10 2 -11 -12 0 -18 -14 -23
-47 -12 -82 -18 -326 -9 -368 9 -39 10 -40 63 -48 119 -17 118 -16 123 -42 2
-14 2 -27 -2 -29 -10 -6 -970 -61 -975 -55 -7 7 -40 559 -33 565 3 4 88 11
189 16 101 5 235 13 298 17 207 15 298 13 308 -5z m742 -127 c0 -12 -10 -31
-21 -41 -21 -18 -22 -18 -15 9 l7 27 -36 -22 c-31 -19 -36 -20 -41 -6 -3 9 -3
23 0 31 5 13 10 14 27 5 16 -9 25 -8 42 4 30 21 37 20 37 -7z m648 -98 c-3
-20 -5 -19 -9 9 -3 20 -2 29 4 23 5 -5 7 -19 5 -32z m-664 6 c-7 -16 -24 -21
-24 -6 0 8 7 13 27 20 1 1 0 -6 -3 -14z m1 -110 c6 -30 6 -30 -10 4 -17 38
-19 49 -6 36 5 -6 12 -23 16 -40z m45 -4 c0 -6 -4 -13 -10 -16 -5 -3 -10 1
-10 9 0 9 5 16 10 16 6 0 10 -4 10 -9z m-23 -803 c-3 -8 -6 -5 -6 6 -1 11 2
17 5 13 3 -3 4 -12 1 -19z m-257 -118 c0 -5 -2 -10 -4 -10 -3 0 -8 5 -11 10
-3 6 -1 10 4 10 6 0 11 -4 11 -10z"/>
<path d="M1025 1910 c3 -5 8 -10 11 -10 2 0 4 5 4 10 0 6 -5 10 -11 10 -5 0
-7 -4 -4 -10z"/>
<path d="M1037 2460 c-3 -11 -1 -20 4 -20 5 0 9 9 9 20 0 11 -2 20 -4 20 -2 0
-6 -9 -9 -20z"/>
<path d="M1870 1170 c0 -19 3 -21 12 -12 9 9 9 15 0 24 -9 9 -12 7 -12 -12z"/>
<path d="M1545 1070 c-3 -5 -1 -10 4 -10 6 0 11 5 11 10 0 6 -2 10 -4 10 -3 0
-8 -4 -11 -10z"/>
<path d="M3138 784 c-16 -8 -28 -17 -28 -20 0 -3 5 -2 11 2 23 14 2 -20 -24
-40 -20 -15 -46 -20 -104 -23 -43 -2 -85 -6 -93 -9 -8 -4 -141 -8 -295 -10
-374 -5 -729 -14 -787 -19 -33 -2 -48 0 -48 8 0 8 -3 8 -8 2 -7 -11 -52 -16
-52 -6 0 6 -318 6 -448 0 -34 -2 -62 -7 -62 -12 0 -5 -26 -6 -58 -3 -31 3 -75
6 -97 7 -73 3 -493 -13 -548 -20 -5 -1 -6 -5 -3 -9 2 -4 -34 -8 -82 -7 -48 0
-95 -3 -104 -8 -11 -5 -18 -4 -18 3 0 5 -7 10 -16 10 -8 0 -12 -4 -9 -10 3 -6
-1 -7 -9 -4 -9 3 -14 10 -11 14 3 5 -8 3 -25 -3 -16 -6 -30 -16 -30 -21 0 -5
-10 -1 -22 10 -13 10 -20 15 -16 10 4 -5 0 -15 -10 -22 -9 -7 -19 -9 -22 -5
-3 3 -31 5 -63 3 l-58 -4 2 -79 c1 -43 5 -76 10 -73 4 2 5 12 2 22 -6 14 -4
15 8 5 13 -10 19 -10 35 2 24 19 31 18 38 -1 3 -8 2 -12 -4 -9 -6 3 -10 1 -10
-4 0 -6 6 -11 13 -11 8 0 7 -3 -2 -9 -12 -8 -10 -11 10 -16 14 -3 29 -5 35 -3
10 3 14 -4 14 -29 0 -15 -2 -16 -10 -3 -5 8 -10 12 -11 8 -1 -5 -2 -11 -3 -15
-1 -5 -5 -14 -10 -22 -6 -10 -5 -12 2 -7 7 4 12 3 12 -2 0 -6 8 -13 17 -16 15
-6 15 -4 -2 14 -15 17 -16 20 -3 20 10 0 18 13 22 34 4 19 13 39 21 46 18 15
20 -1 3 -18 -16 -16 8 -34 35 -26 9 3 24 -2 33 -10 18 -18 39 -22 28 -5 -4 8
-1 8 12 1 23 -12 60 10 48 29 -4 8 -3 10 4 5 7 -4 9 -18 6 -32 -4 -16 -2 -24
6 -24 10 0 10 -3 1 -14 -10 -11 -8 -17 6 -25 11 -6 13 -11 5 -11 -8 0 -23 -10
-34 -23 -11 -12 -17 -17 -14 -11 3 6 -1 11 -7 11 -9 0 -12 -11 -9 -31 3 -17 1
-28 -3 -24 -5 4 -14 3 -21 -3 -9 -8 -16 -5 -24 10 -8 16 -17 20 -38 16 -23 -4
-22 -3 8 12 19 9 41 15 49 14 11 -2 11 0 0 12 -13 14 -39 13 -39 -2 0 -3 -18
-7 -40 -7 -26 -1 -38 2 -33 9 3 6 1 7 -5 3 -6 -4 -20 2 -32 14 -18 18 -25 14
-22 -12 1 -3 -5 -9 -14 -12 -8 -3 -12 -2 -9 3 3 5 1 12 -4 15 -5 3 -11 -3 -14
-14 -3 -13 -11 -18 -25 -15 -30 5 -39 -13 -38 -75 1 -49 3 -55 21 -53 11 1 14
0 7 -3 -6 -3 -10 -10 -6 -15 8 -13 42 -11 47 4 4 7 6 6 6 -4 1 -19 29 -45 38
-35 4 3 2 11 -5 18 -15 15 11 40 32 32 20 -8 21 -24 2 -24 -9 0 -12 -7 -9 -21
4 -12 0 -25 -8 -30 -8 -5 -9 -9 -3 -9 7 0 20 8 31 18 10 9 13 13 7 9 -9 -6
-11 -2 -7 13 6 22 23 38 23 21 0 -5 8 -11 17 -13 15 -3 15 -4 -1 -20 -10 -10
-13 -18 -6 -18 6 0 4 -10 -6 -25 -17 -27 -49 -33 -57 -12 -4 7 -8 3 -12 -10
-4 -13 -12 -23 -17 -23 -6 0 -7 7 -4 16 5 13 2 15 -13 11 -14 -3 -18 -1 -14 9
4 10 -4 14 -26 14 -18 0 -31 -5 -32 -12 0 -7 -2 -20 -4 -29 -2 -12 4 -16 20
-15 13 0 21 6 18 13 -6 16 2 16 30 1 28 -16 77 -18 77 -4 0 6 5 4 10 -4 9 -13
11 -13 20 0 6 10 10 11 10 3 0 -7 7 -10 15 -7 14 6 14 8 -1 19 -15 11 -15 13
7 29 16 12 20 20 12 23 -20 8 -15 33 7 33 12 0 17 5 14 14 -3 8 -15 11 -31 8
-19 -3 -24 -1 -18 7 4 7 13 10 20 7 7 -2 18 1 24 7 7 7 11 8 10 2 -4 -16 12
-45 21 -40 5 3 15 -4 23 -15 7 -11 16 -18 19 -15 3 3 11 -1 18 -10 14 -17 30
-20 30 -6 0 5 -9 11 -20 14 -24 6 -37 34 -22 49 8 8 13 3 18 -16 6 -24 34 -38
34 -16 0 6 -5 10 -12 10 -6 0 -8 3 -4 7 4 5 14 0 21 -11 15 -20 40 -12 31 10
-4 9 2 14 15 14 11 0 17 -5 14 -10 -3 -6 -3 -10 2 -11 54 -5 60 -4 55 13 -4
17 11 23 46 19 8 -1 20 3 27 9 11 9 15 7 21 -14 7 -28 22 -34 30 -12 3 8 12
17 20 20 9 3 12 1 9 -4 -3 -6 -1 -10 4 -10 6 0 11 7 11 15 0 8 5 15 10 15 6 0
9 -6 8 -12 -2 -8 6 -12 22 -11 14 1 19 0 13 -3 -7 -3 -13 -10 -13 -15 0 -6 4
-7 10 -4 5 3 8 0 5 -7 -3 -7 -17 -14 -31 -14 -18 -2 -24 2 -20 13 3 8 1 11 -4
8 -6 -3 -10 -13 -10 -21 0 -11 11 -14 42 -12 30 2 42 -1 40 -9 -1 -7 6 -13 15
-13 14 0 15 -2 4 -9 -9 -6 -10 -11 -2 -15 6 -4 14 0 17 8 3 9 14 16 23 16 13
-1 13 -3 -4 -16 -14 -11 -16 -18 -7 -21 6 -3 10 -8 8 -12 -2 -3 20 -8 50 -9
48 -2 55 0 52 15 -2 13 3 17 18 16 14 -2 24 4 27 17 3 11 13 20 22 20 9 0 14
4 11 9 -4 5 3 7 15 4 18 -5 20 -3 14 16 -5 17 -2 21 17 20 13 0 17 -3 11 -6
-23 -9 -15 -32 8 -26 16 4 20 2 17 -8 -3 -8 -1 -22 4 -32 5 -10 5 -17 -1 -17
-11 0 -23 29 -16 39 7 12 -28 6 -55 -9 -14 -8 -28 -13 -32 -12 -4 1 -4 -6 -1
-15 4 -11 3 -14 -5 -9 -7 4 -12 2 -12 -5 0 -8 -4 -8 -15 1 -12 10 -15 10 -15
-3 0 -12 11 -16 50 -15 27 0 47 4 44 9 -3 5 4 9 15 9 11 0 22 -4 25 -9 7 -10
516 -13 516 -3 0 5 -5 13 -11 19 -8 8 -5 13 10 18 12 3 29 18 38 31 11 17 23
24 35 21 10 -3 18 0 18 5 0 6 6 5 15 -2 21 -18 10 -29 -25 -24 -18 3 -30 1
-30 -6 0 -6 5 -8 12 -4 7 5 8 3 4 -5 -5 -7 -14 -10 -21 -7 -20 7 -34 -16 -24
-39 4 -11 8 -14 8 -7 1 6 8 12 17 12 8 0 13 -4 10 -9 -3 -5 58 -9 140 -10 95
-1 143 2 139 9 -3 5 1 10 10 10 9 0 13 -5 10 -10 -3 -6 5 -10 19 -10 18 0 24
4 20 15 -4 8 -2 15 4 15 5 0 12 -6 15 -14 7 -19 313 -22 336 -3 11 9 13 9 8 0
-6 -9 15 -12 78 -12 47 0 85 4 85 9 0 5 -10 18 -22 30 -12 11 -16 20 -9 20 6
0 20 -13 29 -30 l17 -30 243 1 c156 1 240 4 236 11 -3 5 4 4 15 -4 18 -11 23
-11 31 2 6 10 10 11 10 3 0 -7 7 -13 16 -13 11 0 14 6 10 17 -6 17 -5 17 8 1
9 -13 27 -18 59 -18 40 0 46 3 41 18 -5 16 -5 16 6 0 13 -21 66 -24 73 -5 4 9
6 9 6 0 1 -7 10 -13 21 -13 19 0 20 7 20 194 0 169 -2 195 -16 200 -13 5 -14
9 -4 21 10 12 9 15 -5 15 -9 0 -19 -9 -22 -20 -8 -31 -21 -24 -29 15 -3 19
-14 40 -23 46 -13 9 -13 9 4 4 23 -8 29 -9 68 -7 l28 2 -2 135 c0 74 -4 135
-8 135 -4 0 -14 12 -21 26 -11 19 -19 24 -36 20 -13 -4 -26 -2 -29 4 -8 13
-14 12 -47 -6z m-468 -144 c0 -5 -5 -10 -11 -10 -5 0 -7 5 -4 10 3 6 8 10 11
10 2 0 4 -4 4 -10z m-633 -6 c-3 -3 -12 -4 -19 -1 -8 3 -5 6 6 6 11 1 17 -2
13 -5z m-37 -14 c0 -5 -2 -10 -4 -10 -3 0 -8 5 -11 10 -3 6 -1 10 4 10 6 0 11
-4 11 -10z m900 0 c0 -5 -2 -10 -4 -10 -3 0 -8 5 -11 10 -3 6 -1 10 4 10 6 0
11 -4 11 -10z m-210 -36 c0 -8 4 -14 10 -14 5 0 7 6 4 14 -4 11 0 13 17 9 13
-4 18 -8 12 -10 -7 -3 -9 -12 -6 -21 3 -9 3 -14 -2 -10 -4 4 -14 0 -22 -10
-12 -16 -13 -16 -7 3 5 17 4 18 -8 5 -7 -8 -19 -16 -27 -18 -11 -2 -11 1 1 20
15 23 15 24 -13 26 -16 1 -29 -2 -29 -8 0 -5 4 -10 8 -10 4 0 8 -9 9 -21 1
-12 -3 -19 -10 -16 -7 2 -12 11 -12 20 0 30 -12 27 -19 -5 -5 -26 -9 -30 -16
-18 -6 9 -6 16 0 18 13 5 13 32 0 32 -5 0 -10 -6 -10 -12 -1 -8 -6 -6 -14 5
-24 31 -43 11 -41 -43 2 -49 17 -80 40 -80 6 0 12 -7 12 -15 0 -8 -7 -15 -16
-15 -20 0 -52 20 -33 20 6 0 12 5 12 10 0 7 -7 7 -20 0 -11 -6 -17 -16 -14
-22 5 -7 2 -8 -6 -3 -10 6 -12 4 -7 -9 5 -13 3 -15 -12 -7 -10 6 -21 8 -24 5
-3 -3 -8 -1 -12 5 -3 6 -1 11 4 11 6 0 2 9 -8 19 -12 12 -27 17 -40 14 -17 -4
-20 -2 -15 12 5 11 9 13 14 6 4 -8 13 -5 25 9 18 20 18 21 -1 34 -14 10 -21
11 -26 3 -4 -6 -2 -15 5 -19 7 -4 4 -7 -8 -7 -33 -1 -79 -9 -99 -17 -13 -5
-17 -4 -12 4 3 6 -2 15 -11 21 -16 9 -16 10 4 11 12 0 24 -6 26 -12 3 -7 6 -4
6 6 1 20 1 20 16 0 15 -19 15 -19 9 1 -4 15 -3 17 4 6 6 -9 17 -11 28 -7 18 7
18 8 2 20 -15 11 -15 13 0 24 15 11 14 12 -9 8 -17 -4 -26 -1 -26 8 0 10 12
12 45 8 32 -3 43 -2 38 6 -4 7 8 2 27 -11 27 -17 33 -26 27 -42 -4 -11 -5 -26
-2 -34 3 -8 0 -11 -7 -7 -6 4 -11 5 -11 2 0 -2 -3 -11 -6 -20 -4 -11 -1 -16
10 -16 9 0 16 5 16 12 0 9 3 9 12 0 10 -10 10 -15 -2 -22 -8 -5 -11 -12 -7
-16 4 -4 14 1 21 12 11 14 11 21 3 26 -11 7 -3 12 14 10 3 -1 4 10 1 24 -4 23
-5 23 -18 7 -13 -16 -14 -15 -8 12 3 17 7 35 9 42 5 17 -22 38 -27 21 -3 -8
-6 -7 -10 4 -5 12 2 15 35 15 23 0 34 -2 25 -5 -10 -2 -18 -8 -18 -13 0 -12 7
-11 33 3 24 13 77 18 77 7 0 -9 49 1 55 12 8 12 35 -1 35 -17z m201 9 c13 -17
13 -17 -6 -3 -11 8 -22 16 -24 17 -2 2 0 3 6 3 6 0 17 -8 24 -17z m99 13 c0
-2 -7 -7 -16 -10 -8 -3 -12 -2 -9 4 6 10 25 14 25 6z m-2583 -12 c-3 -3 -12
-4 -19 -1 -8 3 -5 6 6 6 11 1 17 -2 13 -5z m1495 -3 c4 -1 14 -8 23 -17 12
-13 19 -14 30 -4 9 7 15 8 15 2 0 -5 -7 -12 -15 -16 -8 -3 -15 -10 -15 -16 0
-10 8 -5 45 28 17 15 45 16 45 1 0 -6 9 -9 20 -6 23 6 26 -3 8 -22 -11 -11 -8
-13 12 -9 22 4 25 1 25 -26 0 -17 -4 -31 -10 -31 -5 0 -19 -6 -30 -13 -19 -11
-19 -12 4 -9 13 1 35 12 49 24 17 16 29 20 41 14 10 -6 23 -5 34 0 12 7 17 6
17 -1 0 -6 5 -8 11 -5 7 5 4 14 -7 26 -15 16 -15 19 -2 19 21 0 30 -27 18 -51
-8 -13 -7 -19 0 -19 6 0 8 -4 5 -10 -3 -5 3 -10 14 -10 12 0 21 -5 21 -12 0
-6 10 0 22 13 14 17 19 19 15 7 -4 -10 -2 -18 4 -18 6 0 7 -4 4 -10 -3 -5 -1
-10 5 -10 7 0 10 7 7 15 -4 8 -2 17 4 20 5 4 7 11 4 16 -4 5 -1 9 4 9 6 0 11
-7 11 -15 0 -8 -4 -15 -9 -15 -6 0 -6 -12 0 -32 5 -18 9 -34 9 -35 0 -1 -7 0
-16 4 -14 5 -15 3 -5 -16 9 -16 9 -21 0 -19 -6 2 -14 -3 -17 -11 -3 -8 0 -11
7 -7 6 4 11 1 11 -8 0 -10 6 -13 15 -10 9 4 13 15 11 30 -3 13 -1 24 2 24 4 0
9 11 10 25 1 14 -3 25 -8 25 -6 0 -10 5 -10 11 0 6 9 9 20 6 12 -3 18 -1 14 5
-4 6 1 8 11 6 10 -1 20 -9 23 -17 3 -8 0 -11 -7 -7 -6 4 -11 2 -11 -3 0 -6 10
-11 22 -11 l22 0 -22 -16 c-12 -8 -22 -23 -22 -32 0 -15 2 -15 10 -2 5 8 14
16 20 16 5 1 11 3 13 4 1 1 12 4 24 5 13 1 25 -6 31 -20 8 -16 7 -22 -3 -22
-7 0 -11 7 -8 15 5 12 2 12 -14 4 -11 -6 -23 -8 -27 -5 -3 3 -6 4 -6 0 0 -3 8
-13 17 -23 13 -13 14 -16 3 -12 -8 2 -21 -2 -29 -9 -11 -12 -15 -12 -22 -2 -6
10 -14 8 -33 -11 -15 -13 -26 -28 -26 -33 0 -6 11 0 25 13 30 28 33 22 6 -9
-11 -13 -24 -20 -30 -17 -5 4 -12 2 -16 -4 -3 -5 0 -10 8 -10 8 0 24 -8 36
-19 19 -17 20 -19 4 -23 -22 -6 -43 1 -43 13 0 6 5 7 10 4 6 -3 10 -1 10 4 0
14 -17 14 -25 1 -4 -6 -11 -8 -16 -4 -6 3 -13 -3 -16 -15 -5 -22 -43 -30 -43
-10 0 6 7 9 15 5 11 -4 15 1 15 19 0 14 -5 25 -11 25 -5 0 -7 5 -4 10 4 6 10
8 15 5 5 -3 12 6 16 21 5 20 1 31 -19 50 -14 13 -32 24 -39 25 -7 0 -2 5 12
11 14 6 20 12 13 15 -7 2 -9 11 -6 19 3 8 0 14 -7 14 -6 0 -8 5 -4 12 5 7 3 8
-5 4 -7 -5 -10 -14 -7 -22 3 -8 0 -11 -9 -8 -16 7 -39 59 -31 73 11 16 -11 22
-41 10 -15 -6 -22 -13 -15 -16 25 -9 11 -24 -21 -22 -41 4 -81 -30 -60 -50 10
-9 13 -8 13 5 0 11 5 14 16 10 12 -5 15 -2 10 10 -5 13 0 16 28 12 19 -2 32 0
30 4 -3 4 5 8 18 8 17 0 19 -3 9 -9 -11 -7 -10 -10 5 -13 17 -4 16 -6 -6 -16
-14 -6 -22 -12 -17 -13 4 -1 12 -3 17 -4 6 -1 17 -3 25 -4 8 0 15 -6 15 -12 0
-5 -4 -7 -10 -4 -6 3 -7 -1 -4 -9 3 -9 10 -16 16 -16 5 0 6 -5 3 -11 -4 -6 -1
-10 6 -8 35 4 47 -2 47 -26 0 -25 -1 -25 -25 -9 -14 8 -33 14 -44 11 -23 -6
-58 41 -39 53 8 5 8 10 2 14 -14 8 -25 -25 -12 -38 12 -12 14 -29 2 -22 -5 3
-9 -1 -9 -9 0 -8 4 -12 8 -9 4 2 10 0 13 -5 3 -5 -3 -11 -14 -14 -11 -3 -20
-1 -20 4 0 5 -5 9 -11 9 -6 0 -9 -6 -6 -13 6 -16 -29 -61 -37 -48 -4 5 -1 13
6 17 18 11 -24 23 -44 13 -14 -8 -16 -6 -11 7 3 9 13 14 24 11 26 -7 24 10 -2
18 -14 5 -25 2 -30 -6 -7 -11 -9 -11 -9 -1 0 9 -8 7 -27 -5 -25 -17 -27 -17
-21 -1 5 12 3 15 -8 11 -9 -3 -12 -12 -9 -24 4 -11 2 -19 -5 -19 -6 0 -9 4 -6
8 2 4 1 14 -5 22 -6 10 -9 11 -9 3 0 -7 -6 -13 -14 -13 -18 0 -29 -16 -13 -18
98 -15 119 -19 100 -21 -12 0 -25 -6 -28 -11 -5 -8 -11 -8 -20 0 -8 7 -15 7
-19 1 -3 -5 0 -11 6 -14 7 -2 0 -4 -16 -4 -19 0 -24 2 -15 8 11 7 11 9 1 9 -7
0 -10 5 -7 10 4 7 -6 9 -29 7 -22 -3 -37 1 -40 9 -3 8 2 11 18 8 14 -2 33 6
53 25 18 16 34 27 36 25 2 -3 10 2 17 11 8 10 9 15 1 15 -6 0 -11 -4 -11 -9 0
-11 -14 -9 -55 9 -17 7 -24 14 -17 17 6 3 12 10 12 16 0 8 -4 7 -12 -1 -14
-14 -32 -16 -24 -3 3 5 -1 11 -9 14 -27 11 -4 -22 31 -44 38 -23 44 -39 15
-39 -11 0 -28 -3 -38 -6 -15 -5 -16 -4 -3 6 12 9 10 11 -12 7 -26 -4 -27 -2
-23 30 4 31 3 32 -12 17 -14 -13 -14 -17 -2 -25 15 -9 6 -13 -23 -10 -13 2
-16 -3 -12 -16 4 -13 3 -15 -4 -4 -7 10 -14 10 -29 2 -11 -5 -24 -7 -28 -3 -5
4 -5 1 -1 -6 5 -7 14 -11 21 -8 7 2 16 -2 19 -11 4 -10 2 -13 -8 -10 -8 3 -17
0 -19 -7 -4 -9 1 -12 13 -9 15 4 18 1 13 -16 -4 -17 -8 -19 -19 -10 -8 6 -14
8 -14 5 0 -4 -10 -1 -22 6 -13 7 -29 11 -35 10 -7 -2 -23 3 -35 9 -13 7 -33
14 -46 15 -19 2 -21 0 -11 -12 9 -11 8 -14 -5 -14 -9 0 -16 -4 -16 -10 0 -5
-5 -10 -11 -10 -5 0 -7 5 -4 10 3 6 -1 13 -9 16 -9 3 -14 10 -11 15 3 4 12 6
20 2 8 -3 15 0 15 6 0 15 -41 51 -52 45 -12 -8 -10 10 4 24 9 9 9 12 -2 12
-13 0 -13 2 0 11 13 9 13 10 0 6 -8 -2 -15 -10 -16 -18 -2 -35 -5 -40 -16 -33
-7 4 -9 3 -5 -1 4 -5 15 -10 23 -11 9 -1 23 -5 32 -9 13 -5 12 -8 -6 -21 -12
-8 -30 -14 -40 -13 -32 3 -44 -1 -39 -14 3 -8 -8 -12 -34 -12 -22 -1 -39 0
-39 1 0 2 7 10 16 19 14 13 19 14 26 3 7 -9 8 -7 4 7 -3 11 -1 27 4 35 8 12
10 11 10 -6 0 -21 13 -23 70 -14 3 0 -6 6 -20 13 -15 8 -28 9 -31 4 -4 -5 -10
0 -13 11 -4 13 -13 19 -21 15 -8 -3 -12 -9 -9 -14 3 -5 1 -9 -5 -9 -6 0 -8 -7
-4 -16 5 -14 3 -14 -18 -2 -13 7 -30 20 -37 28 -12 13 -13 13 -6 0 4 -8 14
-24 23 -34 9 -11 11 -16 4 -12 -7 4 -20 -1 -30 -11 -21 -21 -47 -23 -65 -4
-11 11 -9 12 8 7 16 -5 23 -2 27 14 3 11 0 23 -5 27 -6 3 -8 1 -4 -5 9 -16
-24 -23 -59 -13 -16 5 -22 10 -12 10 9 1 17 6 17 11 0 6 5 10 10 10 6 0 10 -7
10 -15 0 -8 4 -15 9 -15 6 0 8 9 6 19 -2 14 1 18 10 15 10 -4 12 0 8 15 -3 11
-11 22 -19 25 -8 3 -14 10 -14 17 0 6 15 2 36 -10 19 -12 33 -17 29 -12 -9 15
27 31 46 20 13 -6 16 -4 15 9 0 10 5 16 13 14 12 -3 12 0 1 12 -11 14 -9 16
11 16 19 0 21 2 9 10 -16 10 -43 -6 -34 -21 3 -5 0 -9 -5 -9 -6 0 -11 5 -11
10 0 6 -4 10 -9 10 -5 0 -8 -8 -7 -17 1 -16 -8 -19 -43 -14 -5 0 -12 10 -16
21 -6 18 -8 19 -30 4 -22 -14 -23 -14 -19 4 6 21 32 25 53 8 8 -6 12 -6 9 -1
-3 6 0 16 8 23 12 11 14 10 14 -4 0 -10 3 -15 6 -12 3 3 1 21 -5 39 -5 19 -10
26 -10 17 -1 -10 -6 -18 -12 -18 -5 0 -8 4 -5 9 8 12 -20 22 -39 15 -9 -4 -15
0 -15 9 0 12 8 14 35 11 21 -2 35 0 35 6 0 6 -4 8 -10 5 -5 -3 -10 -3 -11 2
-1 9 -5 34 -13 72 -3 14 -3 20 0 14 3 -7 17 -13 30 -13 13 0 24 -5 24 -11 0
-5 -4 -7 -10 -4 -5 3 -10 -1 -10 -10 0 -11 5 -15 15 -11 8 3 15 0 15 -7 0 -7
3 -8 8 -2 4 6 15 16 24 23 15 12 20 12 31 0 7 -7 12 -20 9 -28 -2 -8 9 -2 24
15 16 16 28 33 26 38 -1 5 3 7 10 4 7 -2 12 -11 12 -20 -1 -12 3 -14 15 -8 9
5 29 7 44 4 19 -4 27 -1 27 9 0 8 7 15 15 15 8 0 15 -3 15 -7 0 -11 -24 -38
-40 -43 -10 -4 -9 -5 5 -6 22 0 67 17 48 18 -7 1 -13 5 -13 10 0 5 8 8 18 6 9
-2 17 -4 17 -5 0 -1 14 -3 32 -4 23 -3 30 0 26 10 -4 10 3 14 23 14 l28 0 -22
-21 c-13 -11 -28 -19 -35 -16 -14 4 -42 -21 -33 -31 4 -3 10 -2 14 3 4 6 16
11 27 13 19 2 19 1 -2 -17 -13 -10 -23 -25 -24 -33 0 -10 -2 -10 -6 0 -2 6 -8
10 -12 8 -4 -3 -8 7 -9 21 -3 35 -11 42 -18 16 -5 -18 -10 -20 -35 -13 -19 6
-31 5 -36 -3 -3 -6 -1 -13 5 -15 7 -2 9 -9 6 -14 -4 -7 -2 -8 4 -4 7 4 17 4
24 0 8 -5 6 -10 -8 -16 -14 -6 -11 -7 9 -3 19 4 26 2 22 -5 -3 -5 -1 -10 5
-10 6 0 13 6 16 14 4 11 12 12 28 6 14 -5 34 -3 55 6 28 12 35 12 48 -1 8 -8
10 -15 4 -15 -6 0 -8 -7 -4 -16 5 -14 7 -14 15 -1 8 16 1 47 -11 47 -4 0 -8 7
-8 15 0 11 4 12 11 5 5 -5 15 -10 21 -10 5 0 3 4 -5 10 -8 5 -12 12 -8 15 3 3
13 -1 22 -10 9 -9 16 -12 16 -5 0 6 5 8 10 5 6 -3 10 -1 10 6 0 7 2 10 5 7 12
-11 -8 -38 -29 -38 -16 0 -18 -2 -7 -9 16 -11 51 7 51 26 0 7 -7 28 -16 47
-26 54 -12 66 68 57z m168 -1 c0 -13 -11 -13 -30 0 -12 8 -11 10 8 10 12 0 22
-4 22 -10z m25 1 c-3 -5 -1 -12 4 -15 5 -3 11 1 15 9 3 8 11 15 18 14 10 0 10
-2 1 -6 -7 -2 -13 -9 -13 -15 0 -6 6 -8 13 -5 16 6 20 -29 6 -55 -5 -10 -17
-18 -25 -18 -12 0 -14 7 -9 30 5 25 4 29 -9 24 -13 -5 -15 -1 -12 17 6 31 5
29 12 29 3 0 3 -4 -1 -9z m215 -13 c0 -6 -6 -5 -15 2 -8 7 -15 14 -15 16 0 2
7 1 15 -2 8 -4 15 -11 15 -16z m485 12 c-3 -5 1 -10 10 -10 11 0 15 -5 11 -15
-3 -8 -1 -15 5 -15 6 0 8 -7 5 -16 -4 -10 1 -22 11 -30 17 -12 16 -13 -4 -7
-14 3 -23 13 -23 24 0 11 -5 19 -10 19 -6 0 -15 10 -20 23 -5 12 -9 16 -9 9
-1 -7 -6 -10 -12 -6 -8 4 -3 12 12 20 29 16 32 17 24 4z m150 0 c3 -6 -1 -7
-9 -4 -18 7 -21 14 -7 14 6 0 13 -4 16 -10z m-748 -27 c-2 -17 -12 -29 -28
-35 -22 -7 -22 -7 -6 6 14 10 15 15 5 19 -8 4 -7 6 5 6 9 1 17 8 17 16 0 8 2
15 5 15 3 0 4 -12 2 -27z m30 21 c-7 -8 23 -40 43 -46 9 -3 5 -7 -12 -10 -15
-3 -25 -1 -22 3 3 5 -2 9 -10 9 -9 0 -16 8 -16 18 0 18 8 32 18 32 3 0 3 -3
-1 -6z m160 0 c-3 -3 -12 -4 -19 -1 -8 3 -5 6 6 6 11 1 17 -2 13 -5z m673 1
c0 -2 -10 -10 -22 -16 -21 -11 -22 -11 -9 4 13 16 31 23 31 12z m-2313 -11
c-3 -3 -12 -4 -19 -1 -8 3 -5 6 6 6 11 1 17 -2 13 -5z m333 2 c0 -3 -4 -8 -10
-11 -5 -3 -10 -1 -10 4 0 6 5 11 10 11 6 0 10 -2 10 -4z m450 -6 c0 -5 -2 -10
-4 -10 -3 0 -8 5 -11 10 -3 6 -1 10 4 10 6 0 11 -4 11 -10z m275 -1 c-4 -5 1
-19 10 -29 11 -12 13 -20 6 -25 -6 -3 -11 -1 -11 5 0 7 -8 9 -20 5 -11 -3 -29
-3 -41 0 -15 5 -18 10 -9 20 6 8 18 11 26 8 7 -3 17 2 20 11 3 9 10 16 16 16
5 0 6 -5 3 -11z m486 -6 c13 -16 12 -17 -3 -4 -10 7 -18 15 -18 17 0 8 8 3 21
-13z m-1796 -2 c3 -5 2 -12 -3 -15 -5 -3 -9 1 -9 9 0 17 3 19 12 6z m2419 -8
c3 -7 10 -13 16 -13 6 0 8 5 5 10 -3 6 -1 10 4 10 6 0 14 0 19 0 4 0 8 -4 8
-10 3 -23 5 -24 14 -10 8 13 10 12 10 -4 0 -14 -5 -17 -24 -12 -28 7 -65 -4
-65 -19 0 -5 -8 -11 -18 -13 -15 -3 -16 -1 -3 7 8 6 11 11 5 11 -5 0 -2 5 8
11 21 12 23 33 2 26 -14 -6 -29 6 -20 15 10 10 34 4 39 -9z m-1724 -9 c0 -8
-5 -12 -10 -9 -6 4 -8 11 -5 16 9 14 15 11 15 -7z m64 -11 c-1 -23 -14 -46
-14 -25 0 7 1 14 3 17 1 2 -6 10 -16 17 -16 12 -16 13 6 13 17 0 22 -5 21 -22z
m1511 9 c-3 -3 -11 0 -18 7 -9 10 -8 11 6 5 10 -3 15 -9 12 -12z m450 8 c-3
-5 -12 -10 -18 -10 -7 0 -6 4 3 10 19 12 23 12 15 0z m-2097 -22 c-8 -6 -2 -7
19 -3 20 4 34 2 39 -6 5 -8 2 -11 -8 -7 -8 4 -22 -2 -31 -13 -9 -10 -25 -19
-34 -18 -13 0 -11 3 7 10 23 9 23 11 7 20 -9 6 -23 7 -30 2 -6 -4 -21 -6 -32
-5 -17 2 -17 1 -5 -7 8 -6 10 -11 5 -11 -15 0 -46 38 -35 45 5 3 12 0 15 -6 4
-5 13 -8 20 -5 8 3 16 0 19 -7 2 -7 5 -4 5 6 1 10 6 15 11 12 6 -3 10 -2 10 4
0 6 7 8 16 4 13 -5 13 -8 2 -15z m1437 12 c3 -5 1 -10 -4 -10 -6 0 -11 5 -11
10 0 6 2 10 4 10 3 0 8 -4 11 -10z m705 0 c0 -5 -2 -10 -4 -10 -3 0 -8 5 -11
10 -3 6 -1 10 4 10 6 0 11 -4 11 -10z m-3092 -21 c2 -5 8 -7 13 -3 5 3 9 0 9
-6 0 -7 -7 -9 -15 -6 -9 3 -18 -1 -21 -9 -4 -8 -10 -12 -15 -9 -5 3 -7 10 -3
15 3 5 0 17 -8 26 -11 14 -10 15 12 8 14 -4 27 -12 28 -16z m82 12 c0 -6 -9
-9 -20 -8 -11 1 -20 5 -20 9 0 4 9 8 20 8 11 0 20 -4 20 -9z m160 -11 c-6 -11
-12 -20 -14 -20 -2 0 -2 9 1 20 3 11 9 20 15 20 5 0 4 -9 -2 -20z m490 10
c-20 -13 -40 -13 -40 0 0 6 12 10 28 10 21 0 24 -2 12 -10z m839 -45 c0 -5 -6
-1 -14 9 -8 11 -15 27 -15 35 1 17 29 -26 29 -44z m1013 28 c14 -27 13 -28
-16 -30 -27 -2 -28 -2 -10 12 19 14 19 14 -1 15 -11 1 -14 4 -7 7 6 2 10 9 6
14 -3 5 -1 9 5 9 5 0 16 -12 23 -27z m-2425 11 c-8 -9 11 -44 24 -44 6 0 7 5
4 10 -3 6 0 10 8 10 8 0 17 -7 21 -15 3 -8 10 -15 16 -15 6 0 9 4 5 9 -3 5 11
15 30 21 19 6 35 17 36 23 0 8 2 8 6 0 2 -7 11 -13 19 -13 9 0 12 5 9 10 -3 6
3 10 14 10 12 0 20 -5 18 -11 -1 -6 4 -14 11 -16 6 -3 12 2 12 11 0 9 5 16 11
16 5 0 7 -4 4 -10 -3 -5 -2 -10 4 -10 5 0 12 6 14 13 3 7 6 5 6 -5 1 -10 5
-18 9 -18 4 0 8 -9 8 -19 0 -11 -4 -17 -8 -15 -4 3 -8 12 -8 20 0 8 -4 14 -10
14 -5 0 -7 -7 -4 -15 4 -8 1 -15 -5 -15 -6 0 -11 5 -11 12 0 6 -3 8 -7 5 -3
-4 -15 0 -25 9 -13 13 -21 14 -31 5 -8 -6 -17 -8 -21 -4 -4 4 -4 -1 0 -12 6
-16 5 -18 -7 -7 -20 19 -57 15 -64 -8 -3 -11 -3 -25 1 -32 5 -9 2 -8 -10 1
-13 11 -16 11 -14 1 2 -7 -2 -14 -9 -17 -8 -3 -10 6 -8 26 2 17 0 31 -5 31 -6
0 -10 -5 -10 -11 0 -5 -5 -7 -12 -3 -7 5 -9 2 -5 -9 3 -9 -1 -18 -10 -21 -24
-10 -28 2 -8 24 10 11 13 20 7 20 -7 0 -12 7 -12 15 0 8 -4 15 -10 15 -5 0
-10 5 -10 10 0 6 8 10 17 10 9 0 13 -3 10 -6z m2457 -2 c3 -5 -1 -9 -9 -9 -8
0 -15 4 -15 9 0 4 4 8 9 8 6 0 12 -4 15 -8z m300 -1 c7 -11 -22 -23 -35 -15
-5 3 -7 10 -4 15 8 12 32 12 39 0z m-2969 -11 c3 -5 -1 -10 -9 -10 -9 0 -16 5
-16 10 0 6 4 10 9 10 6 0 13 -4 16 -10z m743 1 c12 -1 22 -6 22 -12 0 -5 -6
-7 -12 -3 -10 6 -9 3 0 -8 16 -20 42 -13 42 11 0 13 2 13 9 2 8 -13 -6 -41
-19 -38 -3 1 -15 -3 -28 -7 -14 -5 -28 -3 -37 4 -20 17 -19 30 3 30 14 0 15 2
2 10 -9 5 -19 5 -27 -2 -8 -6 -16 -8 -20 -4 -3 3 -1 6 6 6 7 0 10 4 7 9 -4 5
2 8 11 6 10 -2 28 -4 41 -4z m102 -1 c0 -5 -7 -10 -15 -10 -8 0 -15 5 -15 10
0 6 7 10 15 10 8 0 15 -4 15 -10z m60 -6 c0 -2 -7 -4 -15 -4 -8 0 -15 4 -15
10 0 5 7 7 15 4 8 -4 15 -8 15 -10z m1160 6 c0 -5 -8 -10 -17 -10 -15 0 -16 2
-3 10 19 12 20 12 20 0z m370 -16 c0 -8 -5 -14 -11 -14 -5 0 -7 5 -4 10 3 6 1
10 -5 10 -6 0 -8 5 -5 10 8 13 25 3 25 -16z m-2309 3 c-1 -4 -1 -14 -1 -22 0
-26 -16 -16 -18 11 -1 15 3 24 9 22 6 -2 10 -7 10 -11z m2939 9 c0 -2 -7 -9
-15 -16 -13 -11 -14 -10 -9 4 5 14 24 23 24 12z m30 -6 c0 -5 7 -10 16 -10 8
0 12 -4 9 -10 -9 -15 -19 -12 -33 10 -7 12 -8 20 -2 20 5 0 10 -4 10 -10z
m-2927 -17 c-5 -12 -2 -15 10 -10 9 3 17 2 17 -3 0 -6 -4 -10 -9 -10 -6 0 -8
-9 -6 -21 4 -19 0 -21 -35 -17 -22 2 -42 -1 -44 -7 -2 -5 -5 -2 -5 7 -1 22 18
33 32 19 6 -6 18 -11 26 -10 11 0 10 3 -4 9 -17 7 -17 9 -2 9 18 1 24 21 6 21
-8 0 -8 5 1 15 16 20 21 19 13 -2z m387 -5 c0 -21 0 -21 15 -2 8 11 15 14 15
7 0 -7 5 -13 11 -13 5 0 7 5 4 10 -3 6 -1 10 4 10 6 0 11 -6 11 -14 0 -7 9
-16 20 -19 11 -3 20 -1 20 5 0 19 45 3 48 -17 2 -18 2 -19 -8 -2 -9 13 -15 15
-31 7 -11 -6 -24 -8 -30 -4 -8 4 -8 0 0 -14 17 -32 13 -37 -10 -11 -11 13 -18
18 -14 12 7 -15 -11 -18 -20 -4 -3 6 3 14 12 20 16 9 16 10 1 11 -9 0 -20 -5
-23 -10 -8 -14 -35 6 -35 25 0 8 -8 16 -17 18 -14 4 -12 5 5 6 16 1 22 -5 22
-21z m1037 0 c0 -13 -1 -17 -4 -10 -3 6 -9 10 -14 6 -10 -6 -12 9 -2 19 12 13
19 7 20 -15z m1417 10 c7 -7 11 -20 8 -30 -5 -21 24 -26 31 -5 2 6 8 9 12 5
14 -13 -20 -37 -38 -27 -11 7 -19 4 -26 -8 -5 -10 -13 -15 -16 -11 -4 4 0 14
9 23 20 20 20 29 0 49 -18 19 0 22 20 4z m-2928 -20 c-10 -6 -20 -7 -24 -3 -9
8 20 25 31 18 5 -3 2 -10 -7 -15z m324 12 c-13 -9 -11 -13 9 -29 15 -11 21
-23 16 -31 -5 -8 -3 -11 6 -8 8 3 13 11 12 17 -2 6 4 11 12 11 8 0 15 -4 15
-10 0 -14 -39 -32 -52 -24 -6 4 -8 3 -4 -4 3 -6 0 -17 -8 -25 -8 -8 -12 -17
-9 -21 3 -3 12 3 20 13 15 22 50 18 71 -7 11 -14 12 -14 12 1 0 9 5 17 11 17
7 0 9 -10 7 -25 -4 -17 0 -29 11 -36 12 -7 13 -12 3 -15 -6 -3 -10 -9 -8 -13
3 -4 -1 -8 -9 -8 -8 0 -15 4 -15 9 0 4 5 8 10 8 6 0 10 5 10 10 0 14 -28 12
-33 -2 -2 -7 -8 -9 -13 -5 -5 5 -1 15 10 22 17 13 17 14 -6 11 -33 -3 -50 -15
-42 -29 4 -7 -4 -2 -17 9 -23 20 -56 23 -44 4 3 -5 12 -7 20 -3 8 3 15 1 15
-5 0 -6 -6 -13 -12 -15 -7 -3 0 -6 16 -6 24 -1 26 -3 16 -16 -6 -8 -8 -20 -4
-26 5 -8 3 -9 -5 -5 -7 5 -10 14 -7 22 3 8 -1 14 -8 14 -21 0 -28 -40 -8 -41
11 0 13 -2 4 -6 -7 -3 -19 1 -28 7 -12 11 -13 10 -9 -2 4 -11 -5 -14 -44 -14
-34 0 -47 4 -44 12 7 20 -35 38 -53 23 -8 -6 -17 -9 -21 -6 -3 4 6 12 21 18
22 10 29 9 45 -5 10 -9 21 -14 23 -9 3 4 3 3 2 -4 -5 -21 17 -26 31 -7 9 12
14 14 15 6 0 -7 5 -10 10 -7 6 4 8 10 5 15 -3 5 0 12 6 16 8 4 9 3 5 -4 -4 -7
-3 -12 2 -12 15 0 22 26 10 38 -7 7 -16 4 -29 -9 -25 -25 -38 -24 -32 1 3 13
0 20 -8 20 -9 1 -7 6 5 15 15 11 17 18 9 26 -15 15 11 44 47 53 17 5 21 4 11
-2 -10 -7 -10 -11 -1 -17 7 -4 13 1 17 14 3 12 9 21 14 21 5 0 9 5 9 12 0 6
-3 8 -7 5 -9 -10 -35 31 -28 43 3 6 12 10 18 10 7 0 6 -4 -3 -10z m468 -5 c6
11 11 16 12 10 0 -20 -17 -36 -33 -30 -9 4 -13 13 -10 23 6 13 7 13 13 -3 7
-19 7 -19 18 0z m222 -4 c0 -3 4 -12 9 -20 8 -12 12 -13 25 -1 9 7 19 10 22 8
3 -3 -9 -16 -27 -29 -18 -13 -29 -18 -25 -11 4 7 3 12 -3 12 -15 0 -23 -18
-11 -25 12 -8 4 -25 -12 -25 -6 0 -8 3 -5 7 4 3 1 16 -8 29 -13 20 -13 21 4
17 10 -3 22 1 27 8 5 9 2 11 -8 6 -10 -3 -23 3 -34 16 -10 12 -12 16 -4 10 19
-17 33 -16 27 1 -4 10 -1 13 9 9 7 -3 14 -8 14 -12z m403 6 c4 3 7 1 7 -5 0
-17 -16 -15 -31 6 -12 15 -12 16 2 5 9 -7 19 -10 22 -6z m1366 -21 c-3 -3 -11
5 -18 17 -13 21 -12 21 5 5 10 -10 16 -20 13 -22z m-2529 13 c0 -5 5 -7 10 -4
6 3 10 2 10 -3 0 -12 -26 -23 -34 -15 -10 10 -7 33 4 33 6 0 10 -5 10 -11z
m1810 -10 c0 -5 -4 -9 -8 -9 -5 0 -9 7 -9 15 0 8 4 12 9 9 4 -3 8 -9 8 -15z
m570 6 c10 -12 10 -15 -4 -15 -9 0 -16 7 -16 15 0 8 2 15 4 15 2 0 9 -7 16
-15z m-2260 -4 c0 -18 -18 -21 -30 -6 -10 13 -9 15 9 15 11 0 21 -4 21 -9z
m515 -1 c3 -5 1 -10 -4 -10 -6 0 -11 5 -11 10 0 6 2 10 4 10 3 0 8 -4 11 -10z
m1515 -2 c0 -7 -5 -20 -10 -28 -8 -12 -10 -9 -10 13 0 15 5 27 10 27 6 0 10
-6 10 -12z m112 -10 c-7 -7 -12 -8 -12 -2 0 14 12 26 19 19 2 -3 -1 -11 -7
-17z m-2568 -2 c-10 -8 -21 -12 -24 -10 -5 6 21 24 34 24 6 0 1 -6 -10 -14z
m350 -2 c3 -8 2 -12 -4 -9 -6 3 -10 1 -10 -6 0 -7 -2 -10 -5 -7 -5 5 4 38 10
38 2 0 6 -7 9 -16z m114 -9 c-3 -3 -9 2 -12 12 -6 14 -5 15 5 6 7 -7 10 -15 7
-18z m1572 15 c0 -5 -4 -10 -9 -10 -6 0 -13 5 -16 10 -3 6 1 10 9 10 9 0 16
-4 16 -10z m465 0 c3 -5 2 -10 -4 -10 -5 0 -13 5 -16 10 -3 6 -2 10 4 10 5 0
13 -4 16 -10z m435 -16 c0 -2 -9 0 -20 6 -11 6 -20 13 -20 16 0 2 9 0 20 -6
11 -6 20 -13 20 -16z m-317 -17 c-3 -5 0 -13 7 -17 8 -5 3 -7 -13 -7 -23 0
-24 1 -14 28 7 18 14 24 18 17 4 -7 5 -16 2 -21z m262 23 c-3 -5 -11 -10 -16
-10 -6 0 -7 5 -4 10 3 6 11 10 16 10 6 0 7 -4 4 -10z m-2355 -4 c0 -2 -7 -7
-16 -10 -8 -3 -12 -2 -9 4 6 10 25 14 25 6z m215 -6 c3 -5 1 -10 -4 -10 -6 0
-11 5 -11 10 0 6 2 10 4 10 3 0 8 -4 11 -10z m95 -25 c0 -8 5 -15 10 -15 6 0
10 -6 10 -14 0 -11 11 -13 48 -10 31 3 42 2 33 -5 -8 -5 -21 -7 -29 -3 -10 3
-13 0 -10 -9 2 -8 23 -20 45 -27 33 -11 40 -17 36 -33 -3 -10 -9 -19 -14 -19
-5 0 -9 -8 -9 -17 0 -13 3 -14 12 -5 7 7 17 12 22 12 6 0 5 -5 -1 -11 -6 -6
-9 -18 -6 -25 8 -21 -23 -6 -60 29 l-32 29 28 -6 c20 -5 27 -3 27 9 0 8 -6 15
-13 15 -7 0 -18 9 -25 21 -16 25 -34 21 -39 -10 -3 -20 -1 -22 12 -11 18 15
19 7 4 -21 -7 -14 -14 -17 -22 -11 -15 13 -88 11 -84 -2 2 -5 13 -10 25 -11
11 -1 18 3 15 8 -4 6 3 7 18 3 13 -4 32 -8 41 -8 16 1 45 -25 37 -32 -2 -2
-19 -6 -36 -9 -29 -6 -33 -4 -34 16 l-2 22 -4 -22 c-2 -13 -9 -23 -14 -23 -6
0 -7 5 -4 10 3 6 -1 10 -9 10 -9 0 -16 -6 -17 -12 0 -10 -2 -10 -6 0 -3 9 -18
11 -53 6 -46 -6 -49 -5 -47 15 1 11 5 21 9 21 4 0 8 4 8 10 0 5 -7 7 -16 3 -8
-3 -13 -12 -10 -19 3 -8 1 -14 -5 -14 -6 0 -8 -4 -5 -8 3 -5 -13 -9 -35 -10
-33 -2 -40 1 -35 14 3 8 2 13 -3 9 -5 -3 -11 0 -13 6 -2 7 -10 4 -18 -7 -8
-10 -10 -15 -3 -11 6 4 14 3 17 -2 3 -5 -32 -9 -82 -10 -65 0 -83 2 -69 10 10
6 31 8 47 4 32 -7 54 1 44 16 -3 6 -10 6 -17 1 -7 -5 -29 -7 -50 -4 -37 4 -38
5 -15 17 13 6 28 9 33 5 17 -11 33 -6 54 19 12 13 21 20 21 15 0 -6 -5 -15
-12 -22 -16 -16 3 -15 24 2 14 10 15 15 5 26 -9 9 -9 11 0 6 6 -3 14 -2 18 4
3 5 11 10 18 10 6 0 2 -7 -9 -15 -19 -14 -18 -14 4 -15 12 0 22 -5 22 -11 0
-6 -8 -8 -19 -4 -11 3 -22 1 -26 -5 -3 -5 1 -10 9 -10 8 0 25 -10 37 -22 19
-20 20 -21 12 -3 -12 24 -11 61 3 75 14 14 44 2 45 -19 0 -10 2 -11 6 -3 2 6
9 12 14 12 6 0 7 -5 4 -10 -3 -6 0 -13 8 -16 9 -3 13 -13 10 -24 -4 -15 -1
-18 15 -13 11 3 23 11 26 18 3 9 0 12 -8 9 -7 -3 -13 2 -13 11 0 9 6 14 13 11
7 -3 15 2 18 10 4 11 -1 13 -23 9 -19 -3 -33 1 -41 11 -11 12 -15 12 -21 2 -7
-11 -9 -11 -9 0 0 7 -5 10 -12 6 -6 -4 -8 -3 -5 3 4 6 -2 13 -13 16 -10 3 -21
0 -23 -7 -3 -6 -8 -7 -13 -2 -5 5 -4 11 3 13 7 2 10 10 7 18 -4 8 6 20 25 29
40 21 48 20 54 -6 6 -21 5 -22 -7 -5 -13 17 -51 14 -40 -4 3 -5 -2 -6 -11 -3
-11 5 -14 2 -9 -11 4 -10 14 -15 25 -12 12 3 19 0 19 -9 0 -8 6 -11 15 -8 8 4
17 -1 21 -10 4 -11 14 -15 32 -11 28 5 66 -21 55 -38 -4 -6 0 -8 11 -4 10 4
22 7 28 7 6 0 3 9 -7 20 -10 11 -23 17 -29 14 -6 -4 2 5 17 19 28 25 28 26 12
51 -19 29 -27 34 -19 11 4 -8 1 -15 -5 -15 -6 0 -10 11 -9 24 2 20 5 23 20 15
10 -5 18 -16 18 -24z m1930 21 c0 -9 -8 -12 -27 -8 l-28 6 25 7 c14 4 26 7 28
8 1 1 2 -5 2 -13z m-1994 -19 c1 -7 -9 -13 -22 -13 -28 -2 -30 4 -7 22 19 13
26 11 29 -9z m147 -4 c3 -15 0 -20 -7 -15 -6 3 -18 7 -26 7 -8 0 -16 7 -18 16
-2 10 5 15 22 15 17 0 26 -6 29 -23z m1787 11 c0 -11 6 -14 18 -10 14 5 14 4
-2 -9 -11 -8 -14 -15 -8 -15 7 0 12 -9 12 -20 0 -11 -7 -20 -15 -20 -8 0 -15
-5 -15 -11 0 -5 -5 -7 -10 -4 -6 4 -8 11 -5 16 8 12 2 11 -44 -7 -35 -14 -39
-19 -32 -37 11 -30 4 -46 -19 -40 -12 3 -17 12 -15 24 2 11 -4 25 -16 32 -10
6 -19 16 -19 21 0 4 7 3 15 -4 11 -10 18 -9 30 4 15 15 36 21 59 17 4 -1 14 4
22 10 11 9 18 8 29 -1 9 -7 19 -10 23 -6 4 4 0 13 -8 19 -9 7 -14 20 -12 31 3
13 0 16 -9 11 -8 -5 -10 -4 -5 3 10 17 26 15 26 -4z m-2404 -6 c4 -7 3 -8 -4
-4 -8 5 -12 0 -12 -13 0 -12 -4 -21 -10 -21 -5 0 -10 5 -10 11 0 5 -4 7 -10 4
-6 -3 -7 1 -4 9 3 9 10 14 14 11 5 -3 11 -1 15 5 8 13 12 13 21 -2z m204 -5
c0 -3 -9 -3 -20 0 -11 3 -20 2 -20 -2 0 -4 -10 -7 -22 -8 -23 -2 -23 -2 1 11
22 12 61 11 61 -1z m2080 7 c0 -5 -5 -10 -11 -10 -8 0 -8 -4 -1 -13 14 -17 0
-39 -20 -32 -19 7 -33 -22 -18 -40 5 -6 7 -15 3 -19 -4 -4 -1 -5 7 -1 11 4 15
-2 15 -24 0 -33 -14 -55 -16 -25 -1 10 -1 22 0 27 3 17 -28 5 -43 -17 -17 -27
-7 -42 20 -32 12 5 12 2 3 -16 -10 -18 -13 -19 -20 -6 -11 20 -60 11 -66 -12
-6 -21 -39 -16 -48 7 -7 21 -4 23 41 30 32 5 81 33 58 33 -3 0 -1 6 5 14 16
19 -20 58 -46 50 -14 -4 -13 -1 5 14 12 11 22 25 22 31 0 11 14 14 60 12 14 0
19 2 12 5 -10 5 -10 9 -1 20 13 16 39 19 39 4z m-1591 -36 c-12 -13 -27 -20
-32 -17 -6 4 -1 11 11 16 12 6 22 14 22 19 0 5 -5 6 -12 2 -7 -4 -8 -3 -4 4 4
6 13 8 22 5 13 -5 12 -9 -7 -29z m-399 16 c12 -7 10 -9 -8 -7 -12 0 -22 5 -22
9 0 11 12 10 30 -2z m365 0 c-3 -5 -12 -10 -18 -10 -7 0 -6 4 3 10 19 12 23
12 15 0z m-414 -18 c-7 -13 -6 -23 1 -30 8 -8 8 -12 2 -12 -6 0 -19 10 -30 22
-16 18 -16 20 -2 15 9 -3 19 0 22 9 3 8 8 14 11 14 3 0 1 -8 -4 -18z m517 -30
c1 -5 -6 -13 -17 -17 -11 -3 -22 -19 -26 -37 -7 -28 -8 -29 -18 -13 -7 14 -7
20 1 23 7 2 10 13 6 27 -3 12 -1 26 5 30 6 3 8 12 4 18 -4 7 4 5 17 -4 13 -9
26 -21 28 -27z m1547 28 c3 -5 1 -10 -4 -10 -6 0 -11 5 -11 10 0 6 2 10 4 10
3 0 8 -4 11 -10z m-2334 -10 c5 0 9 -4 9 -8 0 -5 -16 -9 -36 -10 -31 -1 -34 1
-23 14 7 8 19 12 26 9 8 -3 19 -5 24 -5z m519 0 c0 -5 -7 -10 -16 -10 -8 0
-12 5 -9 10 3 6 10 10 16 10 5 0 9 -4 9 -10z m1595 0 c-3 -5 -14 -10 -23 -9
-14 0 -13 2 3 9 27 11 27 11 20 0z m-1291 -37 c19 -23 19 -23 0 -23 -14 0 -20
8 -22 27 -1 14 -1 25 1 22 1 -2 11 -14 21 -26z m-655 -35 c1 -5 -3 -8 -9 -8
-5 0 -10 12 -9 28 0 24 1 25 9 7 5 -11 9 -23 9 -27z m1981 20 c12 -8 12 -9 -2
-4 -20 6 -21 5 -12 -18 8 -20 30 -21 42 -1 5 10 15 13 25 9 25 -9 2 -34 -32
-34 -25 0 -56 24 -76 59 -6 10 -2 11 16 6 13 -4 31 -12 39 -17z m218 -3 c-11
-25 -28 -34 -28 -16 0 9 28 41 35 41 3 0 -1 -11 -7 -25z m-288 -11 c-1 -4 4
-11 12 -15 9 -6 9 -9 1 -9 -15 0 -35 35 -25 44 6 7 15 -7 12 -20z m420 3 c10
-4 8 -6 -7 -6 -16 -1 -23 5 -23 17 0 10 3 13 8 6 4 -6 14 -14 22 -17z m-1717
-6 c3 -14 1 -18 -9 -14 -15 6 -18 16 -7 26 9 10 10 9 16 -12z m1247 5 c0 -11
-33 -36 -47 -36 -11 0 -9 6 8 20 23 18 39 25 39 16z m-2295 -16 c3 -5 1 -10
-4 -10 -6 0 -11 5 -11 10 0 6 2 10 4 10 3 0 8 -4 11 -10z m2329 -6 c4 -11 14
-15 31 -12 17 4 25 1 25 -8 0 -13 -12 -18 -32 -15 -5 0 -8 -4 -8 -9 0 -5 5
-10 11 -10 5 0 7 -4 4 -10 -3 -5 -1 -10 4 -10 6 0 11 -5 11 -11 0 -8 -4 -8
-13 0 -8 6 -37 11 -65 12 -29 1 -57 8 -63 16 -6 7 -8 13 -3 13 5 0 2 5 -6 10
-13 8 -13 10 1 10 9 0 22 -6 28 -14 21 -25 49 -26 55 -1 3 13 3 31 0 39 -3 9
-2 16 4 16 5 0 13 -7 16 -16z m483 10 c-3 -3 -12 -4 -19 -1 -8 3 -5 6 6 6 11
1 17 -2 13 -5z m-2843 -25 c-3 -5 -10 -6 -16 -3 -7 4 -8 2 -4 -4 9 -15 -2 -34
-14 -27 -14 9 11 54 26 48 8 -3 11 -9 8 -14z m2100 -12 c4 -19 3 -26 -4 -22
-5 3 -10 18 -10 32 0 32 5 28 14 -10z m-404 13 c12 -8 11 -10 -7 -10 -13 0
-23 5 -23 10 0 13 11 13 30 0z m1278 -5 c14 -13 -8 -14 -44 0 l-39 15 39 -4
c21 -3 41 -8 44 -11z m-423 -5 c3 -5 1 -10 -4 -10 -6 0 -11 5 -11 10 0 6 2 10
4 10 3 0 8 -4 11 -10z m-2298 -22 c-3 -8 -6 -5 -6 6 -1 11 2 17 5 13 3 -3 4
-12 1 -19z m809 7 c4 -8 10 -13 14 -10 5 3 12 0 15 -6 5 -7 -3 -9 -21 -7 -18
2 -30 10 -32 21 -4 21 16 23 24 2z m1018 -19 c23 -15 30 -16 37 -5 5 8 9 11 9
6 0 -4 -5 -16 -12 -26 -11 -18 -12 -18 -31 3 -10 11 -16 15 -12 9 3 -7 1 -13
-4 -13 -6 0 -11 4 -11 9 0 12 -54 3 -58 -10 -5 -12 -52 -12 -52 0 0 5 9 7 20
4 12 -3 22 1 26 10 3 9 12 13 20 10 10 -4 17 2 21 17 3 12 9 18 12 13 3 -5 19
-17 35 -27z m-1974 14 c0 -5 -4 -10 -10 -10 -5 0 -10 5 -10 10 0 6 5 10 10 10
6 0 10 -4 10 -10z m110 0 c-8 -5 -24 -9 -35 -9 -16 1 -16 2 5 9 35 11 48 11
30 0z m1474 -5 c3 -9 0 -15 -9 -15 -8 0 -15 7 -15 15 0 8 4 15 9 15 5 0 11 -7
15 -15z m-1761 -2 c-7 -2 -19 -2 -25 0 -7 3 -2 5 12 5 14 0 19 -2 13 -5z
m1727 -26 c0 -18 -2 -19 -10 -7 -13 20 -13 43 0 35 6 -3 10 -16 10 -28z m-440
13 c0 -5 -5 -10 -11 -10 -5 0 -7 5 -4 10 3 6 8 10 11 10 2 0 4 -4 4 -10z m170
-6 c0 -2 -17 -4 -37 -4 -24 0 -33 3 -25 9 12 7 62 4 62 -5z m540 6 c0 -5 -5
-10 -11 -10 -5 0 -7 5 -4 10 3 6 8 10 11 10 2 0 4 -4 4 -10z m777 -10 c4 -12
3 -13 -5 -1 -6 8 -17 11 -26 8 -9 -4 -16 -2 -16 4 0 16 43 6 47 -11z m-1187 0
c12 -8 11 -10 -7 -10 -13 0 -23 5 -23 10 0 13 11 13 30 0z m1044 -14 c-3 -9
-10 -16 -15 -16 -6 0 -5 9 1 21 13 24 24 20 14 -5z m44 15 c11 -7 11 -9 -1
-14 -9 -3 -18 1 -21 9 -6 16 2 18 22 5z m-903 -11 c3 -5 -1 -10 -9 -10 -9 0
-16 5 -16 10 0 6 4 10 9 10 6 0 13 -4 16 -10z m65 0 c0 -5 -8 -10 -17 -10 -15
0 -16 2 -3 10 19 12 20 12 20 0z m110 -2 c0 -9 4 -8 10 2 5 8 10 10 10 4 0
-16 -10 -23 -26 -17 -16 6 -19 23 -4 23 6 0 10 -6 10 -12z m-1660 -29 c0 -6
-9 -9 -20 -6 -11 3 -18 1 -14 -4 3 -5 -2 -9 -10 -9 -9 0 -19 0 -23 -1 -17 -1
-13 20 4 24 34 9 63 7 63 -4z m2315 1 c3 -6 -1 -7 -9 -4 -18 7 -21 14 -7 14 6
0 13 -4 16 -10z m205 -5 c0 -8 -4 -15 -10 -15 -5 0 -7 7 -4 15 4 8 8 15 10 15
2 0 4 -7 4 -15z m-2444 -7 c5 -7 0 -9 -14 -6 -12 3 -23 1 -24 -4 -2 -6 -13 -8
-23 -6 -18 5 -18 6 5 16 33 14 47 14 56 0z m464 8 c0 -19 -14 -34 -28 -30 -15
5 -15 4 0 -6 13 -8 23 -8 38 0 20 11 26 4 12 -16 -9 -14 -42 -26 -42 -15 0 18
-33 21 -45 5 -8 -11 -19 -15 -30 -10 -15 5 -16 9 -5 19 10 9 13 9 17 -1 3 -8
11 -4 25 13 11 14 26 25 34 25 8 0 12 5 9 10 -3 6 -1 10 4 10 6 0 11 -2 11 -4z
m2020 -4 c0 -5 -7 -9 -15 -9 -8 0 -15 4 -15 9 0 4 7 8 15 8 8 0 15 -4 15 -8z
m167 -14 c-3 -8 -6 -5 -6 6 -1 11 2 17 5 13 3 -3 4 -12 1 -19z m-2313 4 c3 -5
-1 -9 -9 -9 -8 0 -15 4 -15 9 0 10 17 10 24 0z m296 4 c0 -2 -7 -7 -16 -10 -8
-3 -12 -2 -9 4 6 10 25 14 25 6z m44 -7 c-9 -16 17 -30 41 -23 18 6 18 5 -2
-13 -13 -11 -19 -24 -15 -28 4 -5 2 -5 -5 -1 -7 4 -9 14 -6 23 4 11 3 14 -5 9
-7 -4 -12 -2 -12 6 0 10 -2 10 -9 -1 -6 -10 -10 -10 -16 -1 -4 6 1 18 11 25
23 18 27 18 18 4z m-128 -18 c-17 -11 -34 -17 -39 -14 -10 6 30 31 53 32 8 0
2 -8 -14 -18z m201 13 c-3 -3 -12 -4 -19 -1 -8 3 -5 6 6 6 11 1 17 -2 13 -5z
m76 -10 c-5 -13 -2 -15 15 -10 12 4 31 2 42 -4 16 -9 25 -8 36 1 8 6 18 9 21
5 4 -4 2 -11 -6 -15 -10 -6 -8 -10 6 -16 10 -5 22 -7 27 -6 17 4 -16 -28 -35
-34 -11 -4 -17 -10 -14 -14 2 -5 -8 -7 -23 -7 -15 1 -34 -3 -42 -9 -9 -6 -8
-1 3 12 11 12 16 27 12 32 -3 6 -2 11 4 11 12 0 7 33 -6 37 -6 2 -10 -4 -9
-13 0 -9 -6 -19 -14 -22 -13 -5 -13 -3 -1 11 15 19 8 22 -18 8 -13 -8 -17 -5
-17 12 0 12 5 25 10 29 15 11 16 10 9 -8z m-470 -15 c-6 -6 -9 -18 -6 -25 7
-18 -11 -18 -27 1 -12 15 -5 39 10 30 5 -3 12 0 15 6 4 5 10 8 13 4 3 -3 1
-10 -5 -16z m641 9 c-2 -3 -1 -8 3 -11 5 -2 3 -3 -3 -1 -6 1 -17 -3 -24 -9
-10 -9 -12 -8 -7 5 3 9 1 19 -6 21 -7 2 0 4 15 3 14 0 24 -4 22 -8z m216 3 c0
-5 -13 -12 -30 -16 -16 -4 -30 -11 -30 -15 0 -5 -9 -14 -20 -20 -16 -9 -20 -8
-20 6 0 11 5 14 16 10 10 -4 14 -1 11 6 -2 8 11 18 32 24 20 7 37 12 39 13 1
1 2 -3 2 -8z m55 -19 c-3 -3 -11 0 -18 7 -9 10 -8 11 6 5 10 -3 15 -9 12 -12z
m105 -2 c-8 -5 -17 -7 -19 -4 -3 3 1 9 9 14 8 5 17 7 19 4 3 -3 -1 -9 -9 -14z
m47 2 c-15 -10 -24 -22 -20 -26 4 -4 -1 -4 -11 0 -15 6 -14 9 11 25 15 11 33
19 38 19 6 0 -2 -8 -18 -18z m117 3 c4 -13 10 -14 26 -5 11 6 20 8 20 6 0 -3
-10 -10 -21 -17 -17 -9 -24 -8 -30 2 -13 20 -42 -19 -35 -46 5 -19 5 -19 -9
-1 -12 16 -12 21 2 34 14 14 14 17 -3 24 -16 7 -16 8 4 4 12 -2 22 0 22 5 0
15 17 10 24 -6z m-210 -14 c-10 -10 -21 -16 -24 -14 -3 3 4 11 14 19 28 20 33
17 10 -5z m326 3 c0 -2 -9 -4 -20 -4 -11 0 -20 4 -20 9 0 5 9 7 20 4 11 -3 20
-7 20 -9z m-1156 -5 c-4 -8 1 -9 17 -4 16 5 10 -3 -19 -24 -23 -18 -40 -36
-37 -41 9 -14 -11 -12 -35 3 -17 10 -22 9 -29 -2 -6 -9 -11 -10 -15 -2 -13 20
5 31 44 26 23 -3 40 -1 40 5 0 5 -7 7 -15 4 -8 -4 -15 -1 -15 6 0 7 8 10 20 7
13 -3 24 1 30 14 6 10 13 19 16 19 3 0 2 -5 -2 -11z m229 -16 c-17 -14 -17
-14 0 -9 27 9 10 -14 -20 -25 -18 -7 -30 -5 -46 6 -20 14 -19 14 16 12 20 -2
35 -1 32 1 -8 9 16 43 26 36 6 -3 3 -12 -8 -21z m1221 5 c-4 -5 -9 -7 -12 -4
-3 3 -12 0 -21 -7 -14 -10 -14 -10 -4 4 13 16 46 23 37 7z m189 5 c-7 -2 -19
-2 -25 0 -7 3 -2 5 12 5 14 0 19 -2 13 -5z m70 -7 c15 -12 15 -14 3 -19 -9 -4
-18 -2 -22 4 -3 5 -15 7 -26 3 -18 -5 -19 -4 -7 9 17 20 29 20 52 3z m220 0
c4 -9 15 -13 29 -10 l23 5 -23 -13 c-19 -9 -25 -9 -32 1 -6 10 -10 9 -19 -5
-6 -11 -11 -14 -11 -7 0 6 5 15 11 19 8 4 7 9 -2 15 -11 7 -11 9 2 9 9 0 19
-6 22 -14z m-2013 -6 c0 -5 -5 -10 -11 -10 -5 0 -7 5 -4 10 3 6 8 10 11 10 2
0 4 -4 4 -10z m1033 -4 c4 -10 0 -12 -14 -9 -10 3 -16 9 -13 14 8 13 21 11 27
-5z m142 4 c3 -5 2 -10 -4 -10 -5 0 -13 5 -16 10 -3 6 -2 10 4 10 5 0 13 -4
16 -10z m195 0 c0 -5 -5 -10 -11 -10 -5 0 -7 5 -4 10 3 6 8 10 11 10 2 0 4 -4
4 -10z m310 0 c0 -5 -8 -10 -17 -10 -15 0 -16 2 -3 10 19 12 20 12 20 0z m230
0 c0 -5 -5 -10 -11 -10 -5 0 -7 5 -4 10 3 6 8 10 11 10 2 0 4 -4 4 -10z m265
0 c3 -5 1 -10 -4 -10 -6 0 -11 5 -11 10 0 6 2 10 4 10 3 0 8 -4 11 -10z m50 0
c3 -5 2 -10 -4 -10 -5 0 -13 5 -16 10 -3 6 -2 10 4 10 5 0 13 -4 16 -10z
m-1858 -22 c-3 -8 -6 -5 -6 6 -1 11 2 17 5 13 3 -3 4 -12 1 -19z m1076 7 c4
-8 2 -17 -2 -20 -5 -2 -11 4 -14 15 -6 23 8 27 16 5z m102 5 c-3 -5 -14 -10
-23 -9 -14 0 -13 2 3 9 27 11 27 11 20 0z m402 -2 c2 6 9 12 15 12 7 0 7 -5
-1 -13 -6 -8 -9 -16 -7 -18 2 -2 -8 -5 -22 -5 -15 -1 -22 1 -15 3 7 2 9 12 6
21 -4 15 -3 15 7 2 9 -11 13 -12 17 -2z m-1759 -19 c3 -8 1 -11 -3 -6 -5 4
-20 0 -34 -10 -24 -15 -25 -15 -12 0 7 9 10 17 5 17 -5 0 -2 5 6 10 19 12 32
8 38 -11z m170 -14 c-12 -11 -48 -15 -48 -5 0 6 4 9 9 6 5 -3 12 4 15 17 6 21
7 21 17 4 6 -10 9 -20 7 -22z m72 14 c0 -6 -4 -7 -10 -4 -5 3 -10 11 -10 16 0
6 5 7 10 4 6 -3 10 -11 10 -16z m430 6 c7 -8 9 -15 4 -15 -5 0 -2 -5 6 -10 12
-8 11 -10 -7 -10 -13 0 -23 5 -23 10 0 6 -7 10 -15 10 -8 0 -15 -4 -15 -10 0
-5 -4 -10 -10 -10 -5 0 -10 9 -10 20 0 14 5 18 17 13 11 -4 14 -3 9 5 -11 18
29 15 44 -3z m37 9 c-3 -3 -12 -4 -19 -1 -8 3 -5 6 6 6 11 1 17 -2 13 -5z
m950 -16 c-2 -12 -10 -24 -18 -26 -11 -3 -12 -2 -1 6 8 5 13 12 13 16 -2 15
-1 26 4 26 3 0 3 -10 2 -22z m-2632 2 c-3 -5 -10 -10 -16 -10 -5 0 -9 5 -9 10
0 6 7 10 16 10 8 0 12 -4 9 -10z m1955 4 c0 -3 -7 -12 -15 -20 -12 -13 -15
-13 -15 -1 0 7 3 17 7 20 8 8 23 9 23 1z m216 -3 c8 7 14 6 19 -1 11 -18 -2
-23 -41 -15 -27 5 -34 9 -23 15 8 6 18 5 23 0 6 -6 14 -6 22 1z m284 -1 c0 -5
-2 -10 -4 -10 -3 0 -8 5 -11 10 -3 6 -1 10 4 10 6 0 11 -4 11 -10z m390 -1 c0
-5 -4 -8 -9 -4 -5 3 -12 1 -16 -5 -8 -13 -25 -13 -25 1 0 5 4 8 9 4 5 -3 12
-1 16 5 8 13 25 13 25 -1z m-1283 -5 c-3 -3 -12 -4 -19 -1 -8 3 -5 6 6 6 11 1
17 -2 13 -5z m-382 -14 c3 -6 -1 -7 -9 -4 -18 7 -21 14 -7 14 6 0 13 -4 16
-10z m1197 -2 c-9 -9 -15 -9 -24 0 -9 9 -7 12 12 12 19 0 21 -3 12 -12z"/>
<path d="M2415 561 c3 -6 2 -11 -4 -11 -6 0 -8 -7 -5 -15 7 -18 44 -20 44 -2
0 7 -9 18 -21 25 -12 8 -18 9 -14 3z"/>
<path d="M1885 580 c3 -5 -1 -10 -9 -10 -9 0 -16 -4 -16 -9 0 -4 11 -6 25 -3
20 3 23 7 14 18 -13 16 -23 19 -14 4z"/>
<path d="M1910 529 c0 -5 5 -7 10 -4 6 3 10 8 10 11 0 2 -4 4 -10 4 -5 0 -10
-5 -10 -11z"/>
<path d="M1348 503 c6 -2 18 -2 25 0 6 3 1 5 -13 5 -14 0 -19 -2 -12 -5z"/>
<path d="M1437 495 c-9 -7 -17 -15 -17 -18 0 -7 22 -3 37 6 9 6 11 3 6 -9 -5
-14 -3 -15 14 -6 11 6 23 8 27 5 3 -3 6 -3 6 0 0 4 -12 13 -28 21 -22 11 -31
12 -45 1z"/>
<path d="M2007 499 c7 -7 15 -10 18 -7 3 3 -2 9 -12 12 -14 6 -15 5 -6 -5z"/>
<path d="M1386 481 c-11 -12 -14 -21 -7 -26 6 -3 11 -1 11 5 0 6 4 9 8 6 4 -2
9 4 9 15 2 24 0 24 -21 0z"/>
<path d="M1518 487 c9 -10 7 -19 -4 -36 -17 -23 -13 -51 7 -51 8 0 8 4 -1 15
-7 9 -10 19 -6 22 4 4 11 1 15 -6 6 -9 8 -1 6 20 -4 49 -4 49 -16 49 -8 0 -8
-4 -1 -13z"/>
<path d="M1915 490 c-21 -4 -26 -8 -17 -14 7 -4 19 -5 27 -2 8 3 16 -3 20 -13
6 -19 45 -36 45 -20 0 5 15 15 33 23 l32 14 -32 -1 c-17 -1 -29 -6 -26 -11 3
-5 0 -6 -8 -4 -8 3 -13 13 -13 22 2 13 -1 14 -11 6 -7 -6 -15 -7 -17 -3 -1 5
-16 6 -33 3z"/>
<path d="M1316 484 c7 -3 9 -14 7 -25 -5 -19 -4 -20 15 -8 36 22 35 39 -1 38
-18 0 -27 -3 -21 -5z"/>
<path d="M1420 451 c0 -5 6 -11 13 -14 7 -3 2 -9 -12 -14 -20 -8 -21 -11 -8
-16 18 -7 26 2 32 33 2 13 -2 20 -11 20 -8 0 -14 -4 -14 -9z"/>
<path d="M1470 450 c-8 -5 -10 -10 -5 -10 6 0 17 5 25 10 8 5 11 10 5 10 -5 0
-17 -5 -25 -10z"/>
<path d="M1880 449 c0 -7 25 -19 41 -19 5 0 9 7 9 15 0 10 -9 14 -25 13 -14
-1 -25 -5 -25 -9z"/>
<path d="M1793 435 c0 -8 9 -15 20 -15 16 0 17 3 7 15 -7 8 -16 15 -20 15 -3
0 -7 -7 -7 -15z"/>
<path d="M1704 431 c3 -5 -8 -14 -26 -20 -34 -12 -51 -6 -28 10 12 8 12 10 -4
7 -21 -3 -29 -28 -15 -49 7 -11 9 -11 9 -1 0 7 5 10 10 7 6 -3 10 -1 10 4 0 6
3 10 8 9 4 -1 17 3 30 10 23 13 30 32 11 32 -5 0 -8 -4 -5 -9z"/>
<path d="M2029 414 c-23 -25 -23 -26 -2 -13 13 7 25 19 27 26 8 19 2 16 -25
-13z"/>
<path d="M1727 416 c-4 -10 -1 -19 9 -23 21 -8 26 1 11 22 -13 16 -14 16 -20
1z"/>
<path d="M1573 413 c9 -2 23 -2 30 0 6 3 -1 5 -18 5 -16 0 -22 -2 -12 -5z"/>
<path d="M1576 391 c-3 -5 0 -11 8 -14 8 -3 17 1 20 9 6 15 -19 20 -28 5z"/>
<path d="M2370 385 c0 -16 16 -20 24 -6 3 5 -1 11 -9 15 -9 3 -15 0 -15 -9z"/>
<path d="M1429 385 c-1 -3 -2 -9 -3 -15 0 -5 -10 -16 -21 -25 -15 -12 -16 -15
-4 -12 9 3 25 -1 36 -8 17 -12 20 -12 20 0 0 8 -5 13 -11 12 -6 -1 -11 10 -10
26 1 23 -3 37 -7 22z"/>
<path d="M1705 380 c3 -5 8 -10 11 -10 2 0 4 5 4 10 0 6 -5 10 -11 10 -5 0 -7
-4 -4 -10z"/>
<path d="M1930 380 c0 -5 7 -10 16 -10 8 0 12 5 9 10 -3 6 -10 10 -16 10 -5 0
-9 -4 -9 -10z"/>
<path d="M2095 380 c-19 -7 -19 -7 3 -19 12 -6 22 -16 22 -22 0 -6 -3 -8 -8
-6 -4 3 -22 -2 -39 -12 -32 -16 -32 -17 -12 -29 17 -11 20 -11 17 5 -2 13 3
18 18 17 12 0 27 8 33 18 8 13 8 18 0 18 -6 0 -9 7 -6 15 8 19 -3 24 -28 15z"/>
<path d="M2276 376 c3 -8 13 -17 22 -21 13 -5 13 -2 -3 15 -21 24 -26 25 -19
6z"/>
<path d="M1455 370 c3 -5 13 -10 21 -10 8 0 12 5 9 10 -3 6 -13 10 -21 10 -8
0 -12 -4 -9 -10z"/>
<path d="M2044 368 c3 -11 -2 -19 -15 -23 -19 -6 -17 -25 3 -25 6 0 8 3 5 7
-4 3 0 11 8 17 11 8 12 15 4 26 -9 13 -10 12 -5 -2z"/>
<path d="M1550 360 c-8 -5 -12 -12 -9 -15 4 -3 12 1 19 10 14 17 11 19 -10 5z"/>
<path d="M1965 359 c-16 -6 -17 -8 -3 -8 9 -1 18 -9 20 -18 3 -15 5 -14 10 4
7 27 0 33 -27 22z"/>
<path d="M1606 347 c3 -10 9 -15 12 -12 3 3 0 11 -7 18 -10 9 -11 8 -5 -6z"/>
<path d="M1729 352 c7 -5 11 -14 9 -18 -3 -5 -2 -18 3 -29 6 -15 7 -12 6 14
-2 21 -8 36 -17 38 -12 4 -13 3 -1 -5z"/>
<path d="M1520 340 c0 -6 7 -13 15 -16 8 -4 12 -10 9 -15 -3 -5 0 -9 5 -9 17
0 13 14 -9 33 -11 9 -20 12 -20 7z"/>
<path d="M1650 336 c0 -2 7 -6 15 -10 8 -3 15 -1 15 4 0 6 -7 10 -15 10 -8 0
-15 -2 -15 -4z"/>
<path d="M1320 317 c0 -8 8 -21 18 -30 20 -18 37 -23 28 -8 -3 5 1 11 9 15 27
10 16 23 -16 20 -18 -2 -28 0 -24 6 3 6 1 10 -4 10 -6 0 -11 -6 -11 -13z"/>
<path d="M1590 320 c0 -5 5 -10 11 -10 5 0 7 5 4 10 -3 6 -8 10 -11 10 -2 0
-4 -4 -4 -10z"/>
<path d="M1693 315 c0 -8 7 -15 15 -15 12 0 12 3 2 15 -7 8 -13 15 -15 15 -1
0 -2 -7 -2 -15z"/>
<path d="M1420 310 c0 -5 5 -10 11 -10 5 0 7 5 4 10 -3 6 -8 10 -11 10 -2 0
-4 -4 -4 -10z"/>
<path d="M1846 302 c-3 -5 1 -9 9 -9 8 0 12 4 9 9 -3 4 -7 8 -9 8 -2 0 -6 -4
-9 -8z"/>
<path d="M2094 280 c-1 -16 3 -30 8 -30 5 0 7 4 4 9 -4 5 -1 11 4 13 7 2 6 9
-2 21 -12 15 -13 14 -14 -13z"/>
<path d="M2131 294 c0 -11 3 -14 6 -6 3 7 2 16 -1 19 -3 4 -6 -2 -5 -13z"/>
<path d="M1539 276 c6 -7 8 -16 4 -19 -3 -4 8 -7 26 -7 18 0 30 4 26 10 -3 5
-13 6 -22 3 -10 -4 -14 -2 -10 4 4 6 -2 13 -14 16 -15 4 -18 2 -10 -7z"/>
<path d="M1596 278 c3 -4 9 -8 15 -8 5 0 9 4 9 8 0 5 -7 9 -15 9 -8 0 -12 -4
-9 -9z"/>
<path d="M1650 260 c-7 -17 -10 -33 -6 -37 3 -3 6 2 6 13 1 17 2 17 10 2 10
-17 50 -14 50 4 0 5 -9 6 -20 3 -19 -6 -25 2 -21 33 3 21 -6 13 -19 -18z"/>
<path d="M2313 272 c0 -12 5 -22 9 -22 11 0 10 12 -2 30 -7 12 -9 10 -7 -8z"/>
<path d="M1297 246 c-4 -10 -1 -13 8 -9 8 3 12 9 9 14 -7 12 -11 11 -17 -5z"/>
<path d="M1770 540 c-13 -8 -13 -10 2 -10 9 0 20 5 23 10 8 13 -5 13 -25 0z"/>
<path d="M840 470 c0 -5 5 -10 11 -10 5 0 7 5 4 10 -3 6 -8 10 -11 10 -2 0 -4
-4 -4 -10z"/>
<path d="M460 372 c0 -4 9 -8 20 -9 11 -1 18 2 15 8 -7 11 -35 12 -35 1z"/>
<path d="M564 355 c24 -18 39 -20 34 -2 -3 6 -15 13 -29 15 -23 2 -23 2 -5
-13z"/>
<path d="M981 346 c-15 -18 -7 -36 16 -36 9 0 13 3 10 7 -4 3 -2 12 5 20 6 7
8 16 4 20 -3 3 -6 0 -6 -8 0 -11 -2 -11 -9 -1 -6 10 -10 10 -20 -2z"/>
<path d="M780 295 c0 -8 7 -15 16 -15 14 0 14 3 4 15 -7 8 -14 15 -16 15 -2 0
-4 -7 -4 -15z"/>
<path d="M1015 240 c-3 -5 3 -10 15 -10 12 0 18 5 15 10 -3 6 -10 10 -15 10
-5 0 -12 -4 -15 -10z"/>
<path d="M2730 285 c0 -8 4 -15 10 -15 5 0 7 7 4 15 -4 8 -8 15 -10 15 -2 0
-4 -7 -4 -15z"/>
<path d="M2643 353 c-15 -6 -17 -33 -3 -33 5 0 14 9 20 20 11 20 6 23 -17 13z"/>
<path d="M2560 210 c-13 -8 -13 -10 2 -10 9 0 20 5 23 10 8 13 -5 13 -25 0z"/>
<path d="M2475 241 c-3 -5 -1 -12 5 -16 5 -3 10 1 10 9 0 18 -6 21 -15 7z"/>
<path d="M1315 79 c-4 -6 -4 -13 -1 -16 3 -3 0 -13 -7 -21 -10 -12 -6 -12 21
2 17 9 32 21 32 27 0 6 -8 5 -22 -2 -18 -10 -20 -9 -15 5 7 18 2 22 -8 5z"/>
<path d="M3260 450 c-9 -6 -10 -10 -3 -10 6 0 15 5 18 10 8 12 4 12 -15 0z"/>
<path d="M3216 435 c4 -8 10 -12 15 -9 11 6 2 24 -11 24 -5 0 -7 -7 -4 -15z"/>
<path d="M73 394 c0 -16 23 -19 31 -5 3 5 -2 11 -12 13 -11 3 -19 0 -19 -8z"/>
<path d="M172 390 c0 -14 2 -19 5 -12 2 6 2 18 0 25 -3 6 -5 1 -5 -13z"/>
<path d="M208 383 c7 -3 16 -2 19 1 4 3 -2 6 -13 5 -11 0 -14 -3 -6 -6z"/>
<path d="M220 359 c0 -6 -7 -8 -16 -5 -8 3 -12 2 -9 -3 8 -14 45 -9 45 6 0 7
-4 13 -10 13 -5 0 -10 -5 -10 -11z"/>
<path d="M285 359 c-4 -6 -5 -12 -2 -15 2 -3 7 2 10 11 7 17 1 20 -8 4z"/>
<path d="M15 352 c-12 -8 -16 -42 -5 -42 4 0 15 11 24 25 16 25 5 35 -19 17z"/>
<path d="M60 345 c0 -18 26 -20 36 -3 4 7 3 8 -4 4 -7 -4 -12 -2 -12 3 0 6 -4
11 -10 11 -5 0 -10 -7 -10 -15z"/>
<path d="M5 110 c-7 -23 1 -40 18 -40 8 0 8 3 -1 9 -11 7 -11 11 2 23 8 9 12
18 9 22 -12 11 -22 6 -28 -14z"/>
<path d="M534 121 c4 -5 3 -11 -1 -14 -5 -2 -2 -2 5 0 8 1 21 3 30 4 14 0 13
2 -3 9 -27 12 -37 12 -31 1z"/>
<path d="M40 84 c0 -8 5 -12 10 -9 6 3 10 10 10 16 0 5 -4 9 -10 9 -5 0 -10
-7 -10 -16z"/>
<path d="M466 91 c-4 -5 -15 -8 -26 -6 -12 2 -18 0 -14 -6 3 -6 18 -10 32 -9
43 3 48 1 48 -21 0 -14 -5 -19 -18 -16 -10 3 -18 1 -18 -5 0 -6 11 -8 24 -6
15 3 27 0 30 -8 3 -7 14 -10 25 -7 12 3 19 9 16 13 -7 11 22 33 35 25 5 -3 10
-2 10 4 0 5 6 12 13 14 6 2 -1 3 -16 1 -15 -2 -39 -16 -53 -31 -17 -18 -24
-22 -20 -11 3 12 0 18 -10 18 -8 0 -12 5 -9 10 5 8 11 8 20 0 9 -7 15 -8 19
-1 4 6 -3 15 -14 21 -11 6 -20 8 -20 5 0 -3 -11 2 -24 10 -15 10 -26 12 -30 6z"/>
<path d="M575 90 c-4 -6 -12 -7 -18 -4 -7 4 -8 3 -4 -1 13 -15 35 -14 41 1 6
16 -10 19 -19 4z"/>
<path d="M376 65 c8 -19 10 -19 18 0 3 9 0 15 -9 15 -9 0 -12 -6 -9 -15z"/>
<path d="M245 50 c-3 -5 1 -10 9 -10 9 0 16 5 16 10 0 6 -4 10 -9 10 -6 0 -13
-4 -16 -10z"/>
<path d="M290 50 c0 -5 5 -10 10 -10 6 0 10 5 10 10 0 6 -4 10 -10 10 -5 0
-10 -4 -10 -10z"/>
<path d="M231 18 c-1 -20 14 -24 25 -6 4 6 3 8 -4 4 -5 -3 -13 0 -15 6 -3 8
-6 6 -6 -4z"/>
<path d="M420 19 c0 -5 5 -7 10 -4 6 3 10 8 10 11 0 2 -4 4 -10 4 -5 0 -10 -5
-10 -11z"/>
<path d="M666 15 c-16 -12 -17 -15 -4 -15 9 0 18 7 22 15 7 18 6 18 -18 0z"/>
<path d="M734 15 c8 -8 21 -15 28 -15 8 1 6 6 -6 15 -26 20 -42 19 -22 0z"/>
<path d="M285 10 c-19 -8 -19 -9 3 -9 12 -1 22 4 22 9 0 6 -1 10 -2 9 -2 0
-12 -4 -23 -9z"/>
</g>
</svg>
